<svg width="112" height="112" viewBox="0 0 112 112" fill="none" xmlns="http://www.w3.org/2000/svg">
<rect x="24" y="23.8599" width="64" height="64" rx="6" fill="#FBF2F2"/>
<path fill-rule="evenodd" clip-rule="evenodd" d="M47.9233 87.8598H34.6667C29.6384 87.8598 27.1242 87.8598 25.5621 86.2977C24 84.7356 24 82.2214 24 77.1931V40.7557L42.4882 30.0816C45.0391 28.6088 48.3055 29.4907 49.7782 32.0416L70.8161 68.4802C72.2888 71.0311 71.4166 74.296 68.8657 75.7687L47.9233 87.8598Z" fill="url(#paint0_linear_5002_10303)"/>
<path fill-rule="evenodd" clip-rule="evenodd" d="M60.3998 87.8598H46.4776C46.1561 87.3824 45.9069 86.8447 45.7497 86.258L35.363 47.4944C34.6006 44.6493 36.2888 41.7239 39.134 40.9615L77.9039 30.5731C80.7491 29.8108 83.6756 31.5069 84.4379 34.352L94.8241 73.1137C95.5864 75.9589 93.8982 78.8839 91.053 79.6463L60.3998 87.8598Z" fill="#E7B5B5"/>
<rect x="60.3778" y="46.3921" width="13.2458" height="15.4534" rx="6.62288" transform="rotate(-15 60.3778 46.3921)" fill="white"/>
<rect x="48.6494" y="49.5347" width="13.2458" height="15.4534" rx="6.62288" transform="rotate(-15 48.6494 49.5347)" fill="white"/>
<path fill-rule="evenodd" clip-rule="evenodd" d="M56.0691 51.6423C57.4917 51.2612 58.9539 52.1054 59.3351 53.528L59.9064 55.6604C60.2876 57.0829 59.4434 58.5452 58.0208 58.9263C56.5983 59.3075 55.136 58.4633 54.7548 57.0407L54.1835 54.9083C53.8023 53.4857 54.6465 52.0235 56.0691 51.6423Z" fill="#2A2A2A"/>
<path fill-rule="evenodd" clip-rule="evenodd" d="M67.7977 48.4995C69.2203 48.1183 70.6825 48.9626 71.0637 50.3851L71.6351 52.5175C72.0163 53.9401 71.172 55.4023 69.7495 55.7835C68.3269 56.1647 66.8647 55.3205 66.4835 53.8979L65.9121 51.7655C65.5309 50.3429 66.3751 48.8807 67.7977 48.4995Z" fill="#2A2A2A"/>
<path fill-rule="evenodd" clip-rule="evenodd" d="M74.3546 69.5241C69.5072 66.7255 63.3088 68.3863 60.5102 73.2337C59.7738 74.5092 58.1429 74.9462 56.8674 74.2098C55.592 73.4734 55.155 71.8425 55.8914 70.5671C60.1628 63.1688 69.623 60.6339 77.0213 64.9053C78.2967 65.6417 78.7337 67.2726 77.9973 68.5481C77.2609 69.8235 75.63 70.2605 74.3546 69.5241Z" fill="#ED0E00"/>
<defs>
<linearGradient id="paint0_linear_5002_10303" x1="12.389" y1="49.8675" x2="76.383" y2="64.459" gradientUnits="userSpaceOnUse">
<stop stop-color="#E7B5B5"/>
<stop offset="1" stop-color="#AD0000"/>
</linearGradient>
</defs>
</svg>